<?xml version="1.0" encoding="UTF-8" standalone="no"?>
<!DOCTYPE svg PUBLIC "-//W3C//DTD SVG 1.1//EN" "http://www.w3.org/Graphics/SVG/1.1/DTD/svg11.dtd">
<svg width="100%" height="100%" viewBox="0 0 161 161" version="1.1" xmlns="http://www.w3.org/2000/svg" xmlns:xlink="http://www.w3.org/1999/xlink" xml:space="preserve" xmlns:serif="http://www.serif.com/" style="fill-rule:evenodd;clip-rule:evenodd;stroke-linejoin:round;stroke-miterlimit:1.41421;">
    <g transform="matrix(1,0,0,1,-301.792,-22.1763)">
        <g transform="matrix(1,0,0,1,-2.00702,-9.17895)">
            <path d="M426.95,96.5C430.117,91.267 434.917,86.783 441.35,83.05L443.5,81.85C445.767,80.917 448.483,81.317 451.65,83.05C455.15,85.05 458.117,88.167 460.55,92.4C462.517,95.767 463.683,99.1 464.05,102.4C463.717,105.133 462.733,107.117 461.1,108.35L460.35,108.85C459.917,106.683 459.05,104.5 457.75,102.3C455.75,98.8 453.317,96.217 450.45,94.55C447.817,93.15 445.567,92.833 443.7,93.6L441.95,94.55C438.35,96.65 435.35,99.05 432.95,101.75L426.95,96.5M303.95,102.4C304.283,99.1 305.433,95.767 307.4,92.4C309.833,88.167 312.8,85.05 316.3,83.05C319.467,81.317 322.183,80.917 324.45,81.85L326.6,83.05C333,86.75 337.8,91.217 341,96.45C338.933,98.05 336.933,99.817 335,101.75C332.6,99.05 329.6,96.65 326,94.55L324.25,93.6C322.383,92.833 320.133,93.15 317.5,94.55C314.633,96.217 312.2,98.8 310.2,102.3C308.9,104.5 308.033,106.683 307.6,108.85L306.85,108.35C305.217,107.117 304.25,105.133 303.95,102.4" style="fill:rgb(233,187,0);fill-rule:nonzero;"/>
        </g>
        <g transform="matrix(1,0,0,1,-2.00702,-9.17895)">
            <path d="M432.95,101.75C435.35,99.05 438.35,96.65 441.95,94.55L443.7,93.6C445.567,92.833 447.817,93.15 450.45,94.55C453.317,96.217 455.75,98.8 457.75,102.3C459.05,104.5 459.917,106.683 460.35,108.85L459.05,109.6C453.783,112.633 448.617,114.5 443.55,115.2C440.783,110.5 437.35,106.1 433.25,102L432.95,101.75M307.6,108.85C308.033,106.683 308.9,104.5 310.2,102.3C312.2,98.8 314.633,96.217 317.5,94.55C320.133,93.15 322.383,92.833 324.25,93.6L326,94.55C329.6,96.65 332.6,99.05 335,101.75L334.7,102C330.6,106.1 327.167,110.5 324.4,115.2C319.333,114.5 314.167,112.633 308.9,109.6L307.6,108.85" style="fill:rgb(203,162,0);fill-rule:nonzero;"/>
        </g>
        <g transform="matrix(1,0,0,1,-2.00702,-9.17895)">
            <path d="M464.05,102.4C463.683,99.1 462.517,95.767 460.55,92.4C458.117,88.167 455.15,85.05 451.65,83.05C448.483,81.317 445.767,80.917 443.5,81.85L441.35,83.05C434.917,86.783 430.117,91.267 426.95,96.5L426.35,96L425.4,95.25L426.15,93.85C429.317,88.017 434.383,83.083 441.35,79.05L443.5,77.85C445.767,76.917 448.483,77.317 451.65,79.05C455.15,81.05 458.117,84.167 460.55,88.4C462.983,92.567 464.183,96.65 464.15,100.65L464.05,102.4M341,96.45C337.8,91.217 333,86.75 326.6,83.05L324.45,81.85C322.183,80.917 319.467,81.317 316.3,83.05C312.8,85.05 309.833,88.167 307.4,92.4C305.433,95.767 304.283,99.1 303.95,102.4L303.8,100.65C303.767,96.65 304.967,92.567 307.4,88.4C309.833,84.167 312.8,81.05 316.3,79.05C319.467,77.317 322.183,76.917 324.45,77.85L326.6,79.05C333.567,83.083 338.633,88.017 341.8,93.85L342.55,95.25L341,96.45" style="fill:rgb(255,204,0);fill-rule:nonzero;"/>
        </g>
        <g transform="matrix(1,0,0,1,-2.00702,-9.17895)">
            <path d="M417.15,43.95L416.95,44.8C416.183,47.6 414.533,49.75 412,51.25L411.5,51.55C410.633,51.983 409.75,52.3 408.85,52.5L402.3,71.15L402.3,71.2C401.967,72.033 401.417,72.65 400.65,73.05L400.65,73.1L398.25,73.35L398.3,73.35C397.5,73.183 396.85,72.7 396.35,71.9L396.3,71.8C395.867,71.067 395.75,70.283 395.95,69.45L399.6,50.05C398.8,49.283 398.083,48.4 397.45,47.4L397.45,47.35C396.85,46.317 396.45,45.283 396.25,44.25L396.45,43.3C396.983,41.2 398,39.483 399.5,38.15C400.067,37.65 400.683,37.2 401.35,36.8C403.883,35.333 406.583,34.983 409.45,35.75C412.25,36.517 414.4,38.167 415.9,40.7C416.5,41.767 416.917,42.85 417.15,43.95M350.8,43.95C351.033,42.85 351.45,41.767 352.05,40.7C353.517,38.167 355.667,36.517 358.5,35.75C361.367,34.983 364.05,35.35 366.55,36.85L366.6,36.85L367.95,37.8C369.683,39.167 370.867,41 371.5,43.3L371.7,44.2C371.5,45.3 371.1,46.367 370.5,47.4L370.5,47.45L368.35,50.05L372.05,69.5L372,69.45C372.133,70.25 372.033,71 371.7,71.7L371.55,71.95L371.6,71.95C371.133,72.65 370.5,73.133 369.7,73.4L367.3,73.15L367.2,73.1C366.5,72.7 366,72.067 365.7,71.2L365.65,71.2L359.15,52.5C358.05,52.267 356.983,51.867 355.95,51.3L355.7,51.15C353.3,49.65 351.733,47.533 351,44.8L350.8,43.95" style="fill:rgb(203,162,0);fill-rule:nonzero;"/>
        </g>
        <g transform="matrix(1,0,0,1,-2.00702,-9.17895)">
            <path d="M350.8,43.95C350.3,41.383 350.717,38.967 352.05,36.7C353.517,34.167 355.667,32.517 358.5,31.75C361.367,30.983 364.05,31.35 366.55,32.85L366.6,32.85L367.95,33.8C369.683,35.167 370.867,37 371.5,39.3C371.967,41 372.033,42.633 371.7,44.2L371.5,43.3C370.867,41 369.683,39.167 367.95,37.8L366.6,36.85L366.55,36.85C364.05,35.35 361.367,34.983 358.5,35.75C355.667,36.517 353.517,38.167 352.05,40.7C351.45,41.767 351.033,42.85 350.8,43.95M396.25,44.25C395.917,42.65 395.983,41 396.45,39.3C396.983,37.2 398,35.483 399.5,34.15C400.067,33.65 400.683,33.2 401.35,32.8C403.883,31.333 406.583,30.983 409.45,31.75C412.25,32.517 414.4,34.167 415.9,36.7C417.233,38.967 417.65,41.383 417.15,43.95C416.917,42.85 416.5,41.767 415.9,40.7C414.4,38.167 412.25,36.517 409.45,35.75C406.583,34.983 403.883,35.333 401.35,36.8C400.683,37.2 400.067,37.65 399.5,38.15C398,39.483 396.983,41.2 396.45,43.3L396.25,44.25" style="fill:rgb(219,175,0);fill-rule:nonzero;"/>
        </g>
        <g transform="matrix(1,0,0,1,-2.00702,-9.17895)">
            <path d="M344.55,68L424.6,68C423.333,81.733 419.533,93.75 413.2,104.05C405.3,116.917 395.75,123.35 384.55,123.35C373.383,123.35 363.85,116.917 355.95,104.05C349.583,93.75 345.783,81.733 344.55,68M372,110.3C372.133,110.833 372.4,111.317 372.8,111.75C373.233,112.083 373.733,112.3 374.3,112.4L380.5,113.05L382.1,112.7C382.6,112.4 382.967,111.983 383.2,111.45L385.75,105.75C385.983,105.217 386.05,104.683 385.95,104.15C385.817,103.55 385.55,103.067 385.15,102.7L380.5,98.5C380.067,98.1 379.567,97.883 379,97.85C378.433,97.783 377.9,97.883 377.4,98.15L371.95,101.3C371.45,101.567 371.083,101.983 370.85,102.55C370.617,103.05 370.567,103.6 370.7,104.2L372,110.3M380.6,86.65L381.05,85.1C381.05,84.533 380.9,84.017 380.6,83.55L375.65,76.75C375.317,76.283 374.883,75.967 374.35,75.8C373.783,75.6 373.233,75.6 372.7,75.8L364.75,78.35C364.183,78.55 363.733,78.883 363.4,79.35C363.067,79.783 362.9,80.283 362.9,80.85L362.9,89.25C362.9,89.85 363.067,90.383 363.4,90.85C363.733,91.283 364.183,91.583 364.75,91.75L372.7,94.35C373.233,94.517 373.783,94.517 374.35,94.35C374.883,94.183 375.317,93.883 375.65,93.45L380.6,86.65M393.25,102.6C393.717,102.933 394.233,103.1 394.8,103.1C395.4,103.1 395.933,102.933 396.4,102.6L406.1,95.55C406.533,95.183 406.833,94.733 407,94.2C407.167,93.667 407.167,93.133 407,92.6L403.3,81.15C403.133,80.583 402.833,80.133 402.4,79.8C401.933,79.467 401.4,79.3 400.8,79.3L388.75,79.3C388.15,79.3 387.633,79.467 387.2,79.8C386.733,80.133 386.417,80.583 386.25,81.15L382.55,92.6C382.383,93.133 382.383,93.667 382.55,94.2C382.717,94.733 383.033,95.183 383.5,95.55L393.25,102.6" style="fill:rgb(238,190,0);fill-rule:nonzero;"/>
        </g>
        <g transform="matrix(1,0,0,1,-2.00702,-9.17895)">
            <path d="M393.25,102.6L383.5,95.55C383.033,95.183 382.717,94.733 382.55,94.2C382.383,93.667 382.383,93.133 382.55,92.6L386.25,81.15C386.417,80.583 386.733,80.133 387.2,79.8C387.633,79.467 388.15,79.3 388.75,79.3L400.8,79.3C401.4,79.3 401.933,79.467 402.4,79.8C402.833,80.133 403.133,80.583 403.3,81.15L407,92.6C407.167,93.133 407.167,93.667 407,94.2C406.833,94.733 406.533,95.183 406.1,95.55L396.4,102.6C395.933,102.933 395.4,103.1 394.8,103.1C394.233,103.1 393.717,102.933 393.25,102.6M424.6,68L439.35,68C444.95,68 447.833,70.733 448,76.2L448,183.85C447.833,189.283 444.95,192 439.35,192L430,192L430.1,191.9C426.8,190.633 425.167,188.15 425.2,184.45C425,182.383 424.633,180.367 424.1,178.4L423.65,176.85C422.883,174.583 421.9,172.417 420.7,170.35C418.833,167.183 416.433,164.233 413.5,161.5C405.633,154.233 396.15,150.6 385.05,150.6C373.95,150.6 364.45,154.233 356.55,161.5C353.583,164.233 351.183,167.2 349.35,170.4C348.35,172.133 347.517,173.917 346.85,175.75L345.85,179.1C345.417,180.833 345.117,182.617 344.95,184.45C343.917,188.25 341.967,190.767 339.1,192L328.65,192C323.05,192 320.167,189.283 320,183.85L320,76.2C320.167,70.733 323.05,68 328.65,68L344.55,68C345.783,81.733 349.583,93.75 355.95,104.05C363.85,116.917 373.383,123.35 384.55,123.35C395.75,123.35 405.3,116.917 413.2,104.05C419.533,93.75 423.333,81.733 424.6,68M380.6,86.65L375.65,93.45C375.317,93.883 374.883,94.183 374.35,94.35C373.783,94.517 373.233,94.517 372.7,94.35L364.75,91.75C364.183,91.583 363.733,91.283 363.4,90.85C363.067,90.383 362.9,89.85 362.9,89.25L362.9,80.85C362.9,80.283 363.067,79.783 363.4,79.35C363.733,78.883 364.183,78.55 364.75,78.35L372.7,75.8C373.233,75.6 373.783,75.6 374.35,75.8C374.883,75.967 375.317,76.283 375.65,76.75L380.6,83.55C380.9,84.017 381.05,84.533 381.05,85.1L380.6,86.65M372,110.3L370.7,104.2C370.567,103.6 370.617,103.05 370.85,102.55C371.083,101.983 371.45,101.567 371.95,101.3L377.4,98.15C377.9,97.883 378.433,97.783 379,97.85C379.567,97.883 380.067,98.1 380.5,98.5L385.15,102.7C385.55,103.067 385.817,103.55 385.95,104.15C386.05,104.683 385.983,105.217 385.75,105.75L383.2,111.45C382.967,111.983 382.6,112.4 382.1,112.7L380.5,113.05L374.3,112.4C373.733,112.3 373.233,112.083 372.8,111.75C372.4,111.317 372.133,110.833 372,110.3M335.5,134.55C335.5,137.983 336.717,140.9 339.15,143.3C341.583,145.767 344.533,147 348,147C351.4,147 354.333,145.767 356.8,143.3C359.233,140.9 360.45,137.983 360.45,134.55C360.45,131.083 359.233,128.133 356.8,125.7C354.333,123.267 351.4,122.05 348,122.05C344.533,122.05 341.583,123.267 339.15,125.7C336.717,128.133 335.5,131.083 335.5,134.55M432.5,134.55C432.5,131.083 431.283,128.133 428.85,125.7C426.417,123.267 423.467,122.05 420,122.05C416.6,122.05 413.667,123.267 411.2,125.7C408.767,128.133 407.55,131.083 407.55,134.55C407.55,137.983 408.767,140.9 411.2,143.3C413.667,145.767 416.6,147 420,147C423.467,147 426.417,145.767 428.85,143.3C431.283,140.9 432.5,137.983 432.5,134.55" style="fill:rgb(255,204,0);fill-rule:nonzero;"/>
        </g>
        <g transform="matrix(1,0,0,1,-2.00702,-9.17895)">
            <path d="M448,76.2C447.833,70.733 444.95,68 439.35,68L424.6,68L344.55,68L328.65,68C323.05,68 320.167,70.733 320,76.2L320,72.7C320,66.9 322.883,64 328.65,64L439.35,64C445.117,64 448,66.9 448,72.7L448,76.2" style="fill:rgb(255,215,56);fill-rule:nonzero;"/>
        </g>
        <g transform="matrix(1,0,0,1,-2.00702,-9.17895)">
            <path d="M335.5,134.55C335.5,131.083 336.717,128.133 339.15,125.7C341.583,123.267 344.533,122.05 348,122.05C351.4,122.05 354.333,123.267 356.8,125.7C359.233,128.133 360.45,131.083 360.45,134.55C360.45,137.983 359.233,140.9 356.8,143.3C354.333,145.767 351.4,147 348,147C344.533,147 341.583,145.767 339.15,143.3C336.717,140.9 335.5,137.983 335.5,134.55M340.2,134.75C340.2,137.15 341.05,139.167 342.75,140.8C344.417,142.5 346.467,143.35 348.9,143.35C351.267,143.35 353.3,142.5 355,140.8C356.7,139.167 357.55,137.15 357.55,134.75C357.55,132.35 356.7,130.3 355,128.6C353.3,126.933 351.267,126.1 348.9,126.1C346.467,126.1 344.417,126.933 342.75,128.6C341.05,130.3 340.2,132.35 340.2,134.75M432.5,134.55C432.5,137.983 431.283,140.9 428.85,143.3C426.417,145.767 423.467,147 420,147C416.6,147 413.667,145.767 411.2,143.3C408.767,140.9 407.55,137.983 407.55,134.55C407.55,131.083 408.767,128.133 411.2,125.7C413.667,123.267 416.6,122.05 420,122.05C423.467,122.05 426.417,123.267 428.85,125.7C431.283,128.133 432.5,131.083 432.5,134.55M427.75,134.75C427.75,132.35 426.917,130.3 425.25,128.6C423.583,126.933 421.533,126.1 419.1,126.1C416.733,126.1 414.683,126.933 412.95,128.6C411.283,130.3 410.45,132.35 410.45,134.75C410.45,137.15 411.283,139.167 412.95,140.8C414.683,142.5 416.733,143.35 419.1,143.35C421.533,143.35 423.583,142.5 425.25,140.8C426.917,139.167 427.75,137.15 427.75,134.75" style="fill:white;fill-rule:nonzero;"/>
        </g>
        <g id="eyes" transform="matrix(1,0,0,1,-2.00702,-9.17895)">
            <path d="M427.75,134.75C427.75,137.15 426.917,139.167 425.25,140.8C423.583,142.5 421.533,143.35 419.1,143.35C416.733,143.35 414.683,142.5 412.95,140.8C411.283,139.167 410.45,137.15 410.45,134.75C410.45,132.35 411.283,130.3 412.95,128.6C414.683,126.933 416.733,126.1 419.1,126.1C421.533,126.1 423.583,126.933 425.25,128.6C426.917,130.3 427.75,132.35 427.75,134.75M340.2,134.75C340.2,132.35 341.05,130.3 342.75,128.6C344.417,126.933 346.467,126.1 348.9,126.1C351.267,126.1 353.3,126.933 355,128.6C356.7,130.3 357.55,132.35 357.55,134.75C357.55,137.15 356.7,139.167 355,140.8C353.3,142.5 351.267,143.35 348.9,143.35C346.467,143.35 344.417,142.5 342.75,140.8C341.05,139.167 340.2,137.15 340.2,134.75" style="fill:rgb(91,91,91);fill-rule:nonzero;"/>
        </g>
        <g id="mouth" transform="matrix(1,0,0,1,-2.00702,-9.17895)">
            <path d="M339.1,192C341.967,190.767 343.917,188.25 344.95,184.45C345.117,182.617 345.417,180.833 345.85,179.1L346.85,175.75C347.517,173.917 348.35,172.133 349.35,170.4C351.183,167.2 353.583,164.233 356.55,161.5C364.45,154.233 373.95,150.6 385.05,150.6C396.15,150.6 405.633,154.233 413.5,161.5C416.433,164.233 418.833,167.183 420.7,170.35C421.9,172.417 422.883,174.583 423.65,176.85L424.1,178.4C424.633,180.367 425,182.383 425.2,184.45C425.167,188.15 426.8,190.633 430.1,191.9L430,192L339.1,192M403.5,161C402.5,160 401.017,159.783 399.05,160.35C397.083,160.883 395.217,162.033 393.45,163.8L393.3,163.95L392.55,165C392.117,165.733 391.9,166.567 391.9,167.5C391.9,168.933 392.4,170.15 393.4,171.15C394.4,172.15 395.617,172.65 397.05,172.65C398.417,172.65 399.6,172.183 400.6,171.25L400.75,171.1C402.517,169.333 403.667,167.467 404.2,165.5C404.7,163.8 404.6,162.45 403.9,161.45L403.5,161M369.4,171.25C370.4,172.183 371.583,172.65 372.95,172.65C374.383,172.65 375.6,172.15 376.6,171.15C377.6,170.15 378.1,168.933 378.1,167.5C378.1,166.567 377.9,165.733 377.5,165L376.7,163.95L376.55,163.8C374.783,162.033 372.917,160.883 370.95,160.35C368.983,159.783 367.5,160 366.5,161L366.15,161.45C365.417,162.45 365.3,163.8 365.8,165.5C366.333,167.467 367.483,169.333 369.25,171.1L369.4,171.25" style="fill:rgb(210,168,0);fill-rule:nonzero;"/>
        </g>
        <g transform="matrix(1,0,0,1,-2.00702,-9.17895)">
            <path d="M369.4,171.25L369.25,171.1C367.483,169.333 366.333,167.467 365.8,165.5C365.3,163.8 365.417,162.45 366.15,161.45L366.5,161C367.5,160 368.983,159.783 370.95,160.35C372.917,160.883 374.783,162.033 376.55,163.8L376.7,163.95L377.5,165C377.9,165.733 378.1,166.567 378.1,167.5C378.1,168.933 377.6,170.15 376.6,171.15C375.6,172.15 374.383,172.65 372.95,172.65C371.583,172.65 370.4,172.183 369.4,171.25M403.5,161L403.9,161.45C404.6,162.45 404.7,163.8 404.2,165.5C403.667,167.467 402.517,169.333 400.75,171.1L400.6,171.25C399.6,172.183 398.417,172.65 397.05,172.65C395.617,172.65 394.4,172.15 393.4,171.15C392.4,170.15 391.9,168.933 391.9,167.5C391.9,166.567 392.117,165.733 392.55,165L393.3,163.95L393.45,163.8C395.217,162.033 397.083,160.883 399.05,160.35C401.017,159.783 402.5,160 403.5,161" style="fill:rgb(163,130,0);fill-rule:nonzero;"/>
        </g>
    </g>
</svg>
