<?xml version="1.0" encoding="UTF-8" standalone="no"?>
<!DOCTYPE svg PUBLIC "-//W3C//DTD SVG 1.1//EN" "http://www.w3.org/Graphics/SVG/1.1/DTD/svg11.dtd">
<svg width="100%" height="100%" viewBox="0 0 153 128" version="1.1" xmlns="http://www.w3.org/2000/svg" xmlns:xlink="http://www.w3.org/1999/xlink" xml:space="preserve" xmlns:serif="http://www.serif.com/" style="fill-rule:evenodd;clip-rule:evenodd;stroke-linejoin:round;stroke-miterlimit:1.41421;">
    <g transform="matrix(1,0,0,1,-307.799,-256)">
        <path d="M460.05,284.4C459.683,281.1 458.517,277.767 456.55,274.4C454.117,270.167 451.15,267.05 447.65,265.05C444.483,263.317 441.767,262.917 439.5,263.85L437.35,265.05C430.917,268.783 426.117,273.267 422.95,278.5L422.35,278L421.4,277.25L422.15,275.85C425.317,270.017 430.383,265.083 437.35,261.05L439.5,259.85C441.767,258.917 444.483,259.317 447.65,261.05C451.15,263.05 454.117,266.167 456.55,270.4C458.983,274.567 460.183,278.65 460.15,282.65L460.05,284.4M345,278.45C341.8,273.217 337,268.75 330.6,265.05L328.45,263.85C326.183,262.917 323.467,263.317 320.3,265.05C316.8,267.05 313.833,270.167 311.4,274.4C309.433,277.767 308.283,281.1 307.95,284.4L307.8,282.65C307.767,278.65 308.967,274.567 311.4,270.4C313.833,266.167 316.8,263.05 320.3,261.05C323.467,259.317 326.183,258.917 328.45,259.85L330.6,261.05C337.567,265.083 342.633,270.017 345.8,275.85L346.55,277.25L345,278.45" style="fill:rgb(82,140,219);fill-rule:nonzero;"/>
        <path d="M345,278.45C342.933,280.05 340.933,281.817 339,283.75C336.6,281.05 333.6,278.65 330,276.55L328.25,275.6C326.383,274.833 324.133,275.15 321.5,276.55C318.633,278.217 316.2,280.8 314.2,284.3C312.9,286.5 312.033,288.683 311.6,290.85L310.85,290.35C309.217,289.117 308.25,287.133 307.95,284.4C308.283,281.1 309.433,277.767 311.4,274.4C313.833,270.167 316.8,267.05 320.3,265.05C323.467,263.317 326.183,262.917 328.45,263.85L330.6,265.05C337,268.75 341.8,273.217 345,278.45M422.95,278.5C426.117,273.267 430.917,268.783 437.35,265.05L439.5,263.85C441.767,262.917 444.483,263.317 447.65,265.05C451.15,267.05 454.117,270.167 456.55,274.4C458.517,277.767 459.683,281.1 460.05,284.4C459.717,287.133 458.733,289.117 457.1,290.35L456.35,290.85C455.917,288.683 455.05,286.5 453.75,284.3C451.75,280.8 449.317,278.217 446.45,276.55C443.817,275.15 441.567,274.833 439.7,275.6L437.95,276.55C434.35,278.65 431.35,281.05 428.95,283.75L422.95,278.5" style="fill:rgb(75,128,201);fill-rule:nonzero;"/>
        <path d="M428.95,283.75C431.35,281.05 434.35,278.65 437.95,276.55L439.7,275.6C441.567,274.833 443.817,275.15 446.45,276.55C449.317,278.217 451.75,280.8 453.75,284.3C455.05,286.5 455.917,288.683 456.35,290.85L455.05,291.6C449.783,294.633 444.617,296.5 439.55,297.2C436.783,292.5 433.35,288.1 429.25,284L428.95,283.75M311.6,290.85C312.033,288.683 312.9,286.5 314.2,284.3C316.2,280.8 318.633,278.217 321.5,276.55C324.133,275.15 326.383,274.833 328.25,275.6L330,276.55C333.6,278.65 336.6,281.05 339,283.75L338.7,284C334.6,288.1 331.167,292.5 328.4,297.2C323.333,296.5 318.167,294.633 312.9,291.6L311.6,290.85" style="fill:rgb(59,110,180);fill-rule:nonzero;"/>
        <path d="M320,322L319.95,320C319.95,302.3 326.2,287.217 338.7,274.75L342.35,271.35C344.05,269.883 345.783,268.517 347.55,267.25C358.15,259.75 370.283,256 383.95,256C397.65,256 409.783,259.733 420.35,267.2C422.117,268.467 423.85,269.833 425.55,271.3L429.25,274.75C441.717,287.217 447.95,302.3 447.95,320L447.95,322C447.483,305.167 441.25,290.75 429.25,278.75C427.217,276.717 425.117,274.85 422.95,273.15L422.5,273.45C411.867,280.483 399.017,284 383.95,284C368.883,284 356.017,280.483 345.35,273.45L344.95,273.2C342.783,274.9 340.7,276.75 338.7,278.75C326.667,290.75 320.433,305.167 320,322" style="fill:rgb(90,155,243);fill-rule:nonzero;"/>
        <path d="M320,322C320.433,305.167 326.667,290.75 338.7,278.75C340.7,276.75 342.783,274.9 344.95,273.2L345.35,273.45C356.017,280.483 368.883,284 383.95,284C399.017,284 411.867,280.483 422.5,273.45L422.95,273.15C425.117,274.85 427.217,276.717 429.25,278.75C441.25,290.75 447.483,305.167 447.95,322C447.65,332.133 445.267,341.417 440.8,349.85C439.5,352.317 438.017,354.7 436.35,357L436.3,357C434.2,359.867 431.833,362.617 429.2,365.25L424.55,369.55C421.617,368.483 420.167,366.383 420.2,363.25C419.467,355.75 415.983,349.25 409.75,343.75C402.75,337.583 394.3,334.5 384.4,334.5C374.5,334.5 366.033,337.583 359,343.75C352.8,349.25 349.35,355.75 348.65,363.25C347.75,366.45 346.017,368.583 343.45,369.65L338.65,365.25C333.583,360.183 329.55,354.7 326.55,348.8L321,332.1L321,331.9L320.8,330.8L320.75,330.55L320.7,330.05L320.6,329.5L320.45,328.25L320.45,328.05L320.35,327.45L320.35,327.2L320.3,327L320.3,326.75L320.25,326.45L320.2,325.8L320.2,325.55L320.15,325.25L320,322" style="fill:rgb(82,140,219);fill-rule:nonzero;"/>
        <path d="M424.55,369.55L420.35,372.75C409.75,380.25 397.617,384 383.95,384C370.25,384 358.117,380.267 347.55,372.8L343.45,369.65C346.017,368.583 347.75,366.45 348.65,363.25C349.35,355.75 352.8,349.25 359,343.75C366.033,337.583 374.5,334.5 384.4,334.5C394.3,334.5 402.75,337.583 409.75,343.75C415.983,349.25 419.467,355.75 420.2,363.25C420.167,366.383 421.617,368.483 424.55,369.55M401.55,347.35C400.817,346.617 399.717,346.45 398.25,346.85C396.75,347.25 395.35,348.117 394.05,349.45L393.9,349.55C393.2,350.283 392.85,351.183 392.85,352.25C392.85,353.317 393.233,354.217 394,354.95C394.733,355.717 395.65,356.1 396.75,356.1C397.75,356.1 398.633,355.75 399.4,355.05L399.5,354.95C400.833,353.617 401.7,352.217 402.1,350.75C402.533,349.25 402.35,348.117 401.55,347.35M369.4,355.05C370.133,355.75 371.017,356.1 372.05,356.1C373.117,356.1 374.033,355.717 374.8,354.95C375.533,354.217 375.9,353.317 375.9,352.25C375.9,351.183 375.55,350.283 374.85,349.55L374.75,349.45C373.417,348.117 372.017,347.25 370.55,346.85C369.083,346.45 367.967,346.617 367.2,347.35C366.433,348.117 366.267,349.25 366.7,350.75C367.1,352.217 367.967,353.617 369.3,354.95L369.4,355.05" style="fill:rgb(65,120,194);fill-rule:nonzero;"/>
        <path d="M369.4,355.05L369.3,354.95C367.967,353.617 367.1,352.217 366.7,350.75C366.267,349.25 366.433,348.117 367.2,347.35C367.967,346.617 369.083,346.45 370.55,346.85C372.017,347.25 373.417,348.117 374.75,349.45L374.85,349.55C375.55,350.283 375.9,351.183 375.9,352.25C375.9,353.317 375.533,354.217 374.8,354.95C374.033,355.717 373.117,356.1 372.05,356.1C371.017,356.1 370.133,355.75 369.4,355.05M401.55,347.35C402.35,348.117 402.533,349.25 402.1,350.75C401.7,352.217 400.833,353.617 399.5,354.95L399.4,355.05C398.633,355.75 397.75,356.1 396.75,356.1C395.65,356.1 394.733,355.717 394,354.95C393.233,354.217 392.85,353.317 392.85,352.25C392.85,351.183 393.2,350.283 393.9,349.55L394.05,349.45C395.35,348.117 396.75,347.25 398.25,346.85C399.717,346.45 400.817,346.617 401.55,347.35" style="fill:rgb(45,93,156);fill-rule:nonzero;"/>
        <path d="M435.2,327.2C435.2,331 433.85,334.2 431.15,336.8C428.45,339.533 425.2,340.9 421.4,340.9C417.667,340.9 414.417,339.533 411.65,336.8C409.017,334.2 407.7,331 407.7,327.2C407.7,323.367 409.017,320.117 411.65,317.45C414.417,314.75 417.667,313.4 421.4,313.4C425.2,313.4 428.45,314.75 431.15,317.45C433.85,320.117 435.2,323.367 435.2,327.2M427.65,327.1C427.65,324.667 426.833,322.633 425.2,321C423.5,319.3 421.433,318.45 419,318.45C416.667,318.45 414.633,319.3 412.9,321C411.2,322.633 410.35,324.667 410.35,327.1L410.4,327.95C410.567,329.917 411.4,331.617 412.9,333.05C414.633,334.717 416.667,335.55 419,335.55C421.433,335.55 423.5,334.717 425.2,333.05C426.633,331.617 427.433,329.917 427.6,327.95L427.65,327.1" style="fill:white;fill-rule:nonzero;"/>
        <path d="M427.65,327.1L427.6,327.95C427.433,329.917 426.633,331.617 425.2,333.05C423.5,334.717 421.433,335.55 419,335.55C416.667,335.55 414.633,334.717 412.9,333.05C411.4,331.617 410.567,329.917 410.4,327.95L410.35,327.1C410.35,324.667 411.2,322.633 412.9,321C414.633,319.3 416.667,318.45 419,318.45C421.433,318.45 423.5,319.3 425.2,321C426.833,322.633 427.65,324.667 427.65,327.1" style="fill:rgb(91,91,91);fill-rule:nonzero;"/>
        <path d="M340.25,327.1L340.3,327.95C340.467,329.917 341.267,331.617 342.7,333.05C344.4,334.717 346.467,335.55 348.9,335.55C351.233,335.55 353.267,334.717 355,333.05C356.5,331.617 357.333,329.917 357.5,327.95L357.55,327.1C357.55,324.667 356.7,322.633 355,321C353.267,319.3 351.233,318.45 348.9,318.45C346.467,318.45 344.4,319.3 342.7,321C341.067,322.633 340.25,324.667 340.25,327.1M332.7,327.2C332.7,323.367 334.05,320.117 336.75,317.45C339.45,314.75 342.7,313.4 346.5,313.4C350.233,313.4 353.483,314.75 356.25,317.45C358.883,320.117 360.2,323.367 360.2,327.2C360.2,331 358.883,334.2 356.25,336.8C353.483,339.533 350.233,340.9 346.5,340.9C342.7,340.9 339.45,339.533 336.75,336.8C334.05,334.2 332.7,331 332.7,327.2" style="fill:white;fill-rule:nonzero;"/>
        <path d="M340.25,327.1C340.25,324.667 341.067,322.633 342.7,321C344.4,319.3 346.467,318.45 348.9,318.45C351.233,318.45 353.267,319.3 355,321C356.7,322.633 357.55,324.667 357.55,327.1L357.5,327.95C357.333,329.917 356.5,331.617 355,333.05C353.267,334.717 351.233,335.55 348.9,335.55C346.467,335.55 344.4,334.717 342.7,333.05C341.267,331.617 340.467,329.917 340.3,327.95L340.25,327.1" style="fill:rgb(91,91,91);fill-rule:nonzero;"/>
    </g>
</svg>
